<svg id="Calque_1" data-name="Calque 1" xmlns="http://www.w3.org/2000/svg" viewBox="0 0 379.36 136.28"><defs><style>.cls-1{fill:#4e928b;}.cls-2{fill:#fbd460;}</style></defs><title>ePoKa</title><path class="cls-1" d="M39.26,101.59q-3.22,0-4.35-1.65a6.32,6.32,0,0,1-1.13-3.65V37.67a6.13,6.13,0,0,1,1.13-3.61q1.13-1.61,4.35-1.61H69.53q3.22,0,3.39,4.35t-3.39,4.44H44V92.81h27q3.22,0,3.3,4.26.17,4.52-3.3,4.52Z"/><path class="cls-2" d="M82.66,71.5q-4,0-4-4.35a5,5,0,0,1,1.13-3.35,3.79,3.79,0,0,1,2.87-1.09h17.57q3.91,0,3.91,4.44.17,4.35-3.91,4.35Z"/><path class="cls-1" d="M131.7,75.94a2.66,2.66,0,0,1-2.31-1.17,5.41,5.41,0,0,1-.83-3.17q0-4.43,3.65-4.44h9.22q3.22,0,4.57-1.83a6.59,6.59,0,0,0,1.35-4V47.07a6.6,6.6,0,0,0-1.35-4q-1.35-1.83-4.57-1.83H123.18V98q0,4.17-5.22,4.17-5,0-5-4.17V37.67q0-3.13,1.57-4.17a6.74,6.74,0,0,1,3.83-1H143.7a12.63,12.63,0,0,1,4.61,1,26,26,0,0,1,4.7,2.43h-.09a10.83,10.83,0,0,1,3.48,4.3,14.56,14.56,0,0,1,1.22,6.13V62q0,7-4.7,10.52a19,19,0,0,1-4.61,2.52,13.21,13.21,0,0,1-4.61.87Z"/><path class="cls-1" d="M193.71,41l-19,58.44v-.09a5.64,5.64,0,0,1-1.43,2.13,3.19,3.19,0,0,1-2.22.83,6.86,6.86,0,0,1-1.35-.13q-.65-.13-1.35-.3h.09q-5-1.57-3.65-5.57L184.57,36a5.09,5.09,0,0,1,1.52-2.35,4.61,4.61,0,0,1,2.56-1.13q1.48-.26,2.87-.39t2.17-.13q.78,0,2.17.13t2.87.3a4.41,4.41,0,0,1,2.39,1.3A9.41,9.41,0,0,1,202.92,36q4.87,15,9.87,30.13t9.87,30.13q1.22,4-3.65,5.57l-1.26.3a5.64,5.64,0,0,1-1.26.13,3.4,3.4,0,0,1-2.22-.83,4.56,4.56,0,0,1-1.43-2.13v.09Z"/><path class="cls-1" d="M267.28,33.5a3.8,3.8,0,0,1,3-1.57A5.81,5.81,0,0,1,274,33.59a13.54,13.54,0,0,1,1.61,1.91,3.38,3.38,0,0,1,.65,1.91,3.68,3.68,0,0,1-1.13,2.7L263.45,53.68l-22.7,26.7V97.85q0,4.17-5.22,4.17t-5.13-4.17V36.2q0-4.17,5.13-4.17t5.22,4.17V64.63Z"/><path class="cls-1" d="M320,32.46a12.83,12.83,0,0,1,4.7,1,26,26,0,0,1,4.7,2.43h-.09a10.83,10.83,0,0,1,3.48,4.3A14.56,14.56,0,0,1,334,46.28V87.59q0,7-4.7,10.52a20,20,0,0,1-4.65,2.57,13,13,0,0,1-4.65.91H301a13,13,0,0,1-4.65-.91,19.9,19.9,0,0,1-4.65-2.57,11.65,11.65,0,0,1-3.48-4.3A14.39,14.39,0,0,1,287,87.59V46.28a14.54,14.54,0,0,1,1.22-6.13,10.81,10.81,0,0,1,3.48-4.3h-.09a25.88,25.88,0,0,1,4.7-2.43,12.82,12.82,0,0,1,4.7-1ZM317.8,92.81q3.22,0,4.52-1.83a6.86,6.86,0,0,0,1.3-4.09V47.07a6.74,6.74,0,0,0-1.3-4q-1.3-1.83-4.52-1.83H303.19q-3.22,0-4.52,1.83a6.74,6.74,0,0,0-1.3,4V86.9a6.86,6.86,0,0,0,1.3,4.09q1.3,1.83,4.52,1.83Z"/><path class="cls-2" d="M200.23,80.63a6.68,6.68,0,0,1-6.7,6.7,6.31,6.31,0,0,1-4.7-2,6.83,6.83,0,0,1,0-9.48,6.31,6.31,0,0,1,4.7-2,6.68,6.68,0,0,1,6.7,6.7Z"/><path class="cls-1" d="M66.31,65.59a6.9,6.9,0,0,1-2.13,5.13A7.12,7.12,0,0,1,59,72.81a6.87,6.87,0,0,1-5-2.09,7.35,7.35,0,0,1,0-10.26,6.87,6.87,0,0,1,5-2.09,7.12,7.12,0,0,1,5.17,2.09A6.9,6.9,0,0,1,66.31,65.59Z"/><path class="cls-2" d="M254.93,74.93a5,5,0,0,1-.87-3,4.89,4.89,0,0,1,2.17-4.17h-.09a6,6,0,0,1,3.48-1.22,3.26,3.26,0,0,1,2.78,1.91L279.19,93l-.09-.09a4.75,4.75,0,0,1,.78,2.61,5,5,0,0,1-2.26,4h.09a11.1,11.1,0,0,1-1.83,1,4.27,4.27,0,0,1-1.57.35,2.49,2.49,0,0,1-1.43-.52,8.44,8.44,0,0,1-1.43-1.3Z"/><path class="cls-1" d="M66.31,65.59a6.9,6.9,0,0,1-2.13,5.13A7.12,7.12,0,0,1,59,72.81a6.87,6.87,0,0,1-5-2.09,7.35,7.35,0,0,1,0-10.26,6.87,6.87,0,0,1,5-2.09,7.12,7.12,0,0,1,5.17,2.09A6.9,6.9,0,0,1,66.31,65.59Z"/></svg>